<svg width="512" height="512" viewBox="0 0 512 512" fill="none" xmlns="http://www.w3.org/2000/svg">
<rect width="512" height="512" rx="96" fill="#6D28D9"/>
<path d="M256 128C186.4 128 131.911 182.502 128.2 252H192C192 216.686 220.686 188 256 188V128Z" fill="white" fill-opacity="0.5"/>
<path d="M256 384C325.6 384 380.089 329.498 383.8 260H320C320 295.314 291.314 324 256 324V384Z" fill="white" fill-opacity="0.5"/>
<path d="M208 256C208 229.49 229.49 208 256 208C282.51 208 304 229.49 304 256C304 282.51 282.51 304 256 304C229.49 304 208 282.51 208 256Z" fill="white"/>
<path d="M256 128C269.467 128 282.467 130.681 294.6 135.6L281.4 162.8C273.8 159.933 265.133 158 256 158V128Z" fill="white"/>
<path d="M256 384C242.533 384 229.533 381.319 217.4 376.4L230.6 349.2C238.2 352.067 246.867 354 256 354V384Z" fill="white"/>
<path d="M141.4 180C146.533 167.867 154.067 156.8 163.4 147.4L186.2 170.2C179.933 176.467 174.733 183.667 170.6 191.4L141.4 180Z" fill="white"/>
<path d="M370.6 364.6C365.467 376.733 357.933 387.8 348.6 397.2L325.8 374.4C332.067 368.133 337.267 360.933 341.4 353.2L370.6 364.6Z" fill="white"/>
</svg>
